<?xml version="1.0" encoding="iso-8859-1"?>
<!-- Generator: Adobe Illustrator 16.0.0, SVG Export Plug-In . SVG Version: 6.00 Build 0)  -->
<!DOCTYPE svg PUBLIC "-//W3C//DTD SVG 1.1//EN" "http://www.w3.org/Graphics/SVG/1.1/DTD/svg11.dtd">
   
<svg version="1.1" id="Capa_1" xmlns="http://www.w3.org/2000/svg" xmlns:xlink="http://www.w3.org/2000/svg" x="0px" y="0px"
	 width="490.646" height="555.378px" viewBox="0 0 555.377 555.378" style="enable-background:new 0 0 555.377 555.378;"
	fill="#ff8c1a"
	 xml:space="preserve">
<g>
<g >
    <path d="m400.854668,225.725l-309.172668,0l0,328.653l309.172668,0l0,-328.653zm-227.048678,283.772l-16.102743,0l0,-238.892l16.102743,0l0,238.892zm80.513716,0l-16.102743,0l0,-238.892l16.102743,0l0,238.892zm80.513716,0l-16.103796,0l0,-238.892l16.103796,0l0,238.892z"/>
    <path d="m432.696,164.521l-62.945939,-34.783l33.570536,-54.847l-137.339559,-75.891l-33.570536,54.844l-66.971624,-37.007l-31.841333,52.023l267.257122,147.685l31.841333,-52.024zm-155.066259,-123.685l81.660904,45.125l-17.38149,28.394l-81.664062,-45.125l17.384648,-28.394z"/>
   </g>
</g>
<g>
</g>
<g>
</g>
<g>
</g>
<g>
</g>
<g>
</g>
<g>
</g>
<g>
</g>
<g>
</g>

<g>
</g>
<g>
</g>
</svg>

